<svg width="581" height="171" viewBox="0 0 581 171" fill="none" xmlns="http://www.w3.org/2000/svg">
<path fill-rule="evenodd" clip-rule="evenodd" d="M173.035 85.6123C173.035 132.389 134.3 170.31 86.5173 170.31C38.7351 170.31 0 132.389 0 85.6123C0 38.8354 38.7351 0.915161 86.5173 0.915161C134.3 0.915161 173.035 38.8354 173.035 85.6123ZM43.4539 120.377C47.3813 121.479 51.4501 122.019 55.5348 121.981C61.8798 122.255 68.211 121.192 74.1021 118.864C84.2128 114.471 88.4689 106.158 89.9001 95.9853C90.0474 94.9302 89.447 95.0325 88.9326 95.1201C88.7982 95.143 88.6697 95.1649 88.5619 95.1649H72.894C71.5744 95.1467 71.1097 95.5113 70.7752 96.7874C68.9352 103.77 64.4002 106.796 56.9659 105.902C56.1125 105.902 55.2684 105.729 54.4859 105.395C53.7034 105.062 52.9993 104.573 52.4172 103.961C51.835 103.349 51.3874 102.627 51.102 101.838C50.8166 101.049 50.6996 100.211 50.7582 99.3761C50.7428 98.5108 50.7925 97.6455 50.9069 96.7874C51.1802 95.1719 51.45 93.5625 51.719 91.9579C52.8405 85.2691 53.9483 78.6619 55.2374 72.0309C56.6685 64.7753 61.4079 61.348 68.8422 61.8949C72.7772 62.1531 76.7242 61.6129 80.4368 60.308C84.1495 59.0032 87.548 56.9618 90.4205 54.3112C91.3683 53.5091 91.2011 53.0351 90.4205 52.2694C88.4817 50.3357 86.1343 48.8422 83.5437 47.8942C76.9989 45.8101 70.0446 45.2729 63.2479 46.3264C49.6244 47.8213 40.3129 55.6238 37.2276 68.6765C36.0814 73.5242 35.2131 78.4761 34.3517 83.3886C33.9141 85.8842 33.4782 88.3697 33.0087 90.8261C31.8943 95.5707 31.3886 100.433 31.5032 105.301C32.005 113.085 35.8895 118.026 43.4539 120.377ZM100.568 76.2786C94.3979 82.094 86.7034 83.0784 78.8601 83.7347C78.2026 83.7892 77.5406 83.8166 76.8808 83.8438H76.8806H76.8803C76.216 83.8712 75.554 83.8986 74.9013 83.9535C73.6003 84.0629 73.1542 83.9535 73.433 82.4586C74.3809 77.5729 75.2916 72.6508 76.0722 67.7287C76.2477 66.6802 76.834 66.6661 77.5608 66.6485H77.5609C77.6808 66.6456 77.8045 66.6426 77.9308 66.6348C83.5405 66.5474 88.9835 64.7508 93.5058 61.494C97.6158 58.3796 100.62 54.0738 102.092 49.1886C102.123 48.9372 102.207 48.6948 102.338 48.4768C102.469 48.2588 102.646 48.0701 102.855 47.9226C103.065 47.7751 103.304 47.6721 103.557 47.6201C103.809 47.5682 104.07 47.5684 104.323 47.6208H122.463C124.024 47.6208 124.173 48.0766 123.931 49.4438C119.693 72.985 115.487 96.514 111.311 120.031C111.069 121.38 110.605 121.726 109.267 121.708H93.7846C92.3535 121.708 91.926 121.471 92.2791 119.885C94.5475 108.253 96.7534 96.5961 98.9584 84.9449L98.9588 84.9428C99.4456 82.3703 99.9324 79.7981 100.42 77.2266C100.475 77.026 100.513 76.7343 100.568 76.2786ZM119.6 121.653H129.023H129.025C132.184 121.653 135.325 121.653 138.558 121.69C140.008 121.69 140.491 121.198 140.695 119.867C141.513 114.641 142.399 109.421 143.353 104.207C143.576 102.913 143.074 102.803 141.996 102.803H122.927C121.589 102.803 121.254 103.277 121.069 104.353C120.675 106.478 120.302 108.604 119.93 110.728C119.389 113.815 118.849 116.899 118.244 119.976C117.983 121.289 118.169 121.653 119.6 121.653Z" fill="#04FFA4"/>
<path d="M222.38 120.195C214.698 120.195 208.589 118.068 204.054 113.814C199.519 109.561 197.24 103.448 197.215 95.4749V80.8908C197.215 72.9182 199.495 66.805 204.054 62.5513C208.614 58.2976 214.723 56.1708 222.38 56.1708C230.05 56.1708 235.966 58.2247 240.13 62.3326C244.293 66.4404 246.375 72.0735 246.375 79.2319V79.7241H235.781V78.922C235.919 75.4493 234.748 72.0483 232.491 69.3694C230.298 66.8901 226.915 65.7234 222.38 65.7234C220.446 65.6272 218.513 65.935 216.709 66.6264C214.905 67.3178 213.272 68.377 211.916 69.734C209.223 72.7875 207.85 76.7506 208.088 80.7815V95.7301C207.885 99.7231 209.256 103.64 211.916 106.668C213.264 108.037 214.895 109.107 216.7 109.805C218.506 110.504 220.442 110.814 222.38 110.715C226.934 110.715 230.298 109.457 232.491 107.069C234.748 104.39 235.919 100.989 235.781 97.5167V96.0218H246.375V97.2433C246.375 104.414 244.293 110.047 240.13 114.143C235.966 118.238 230.05 120.256 222.38 120.195Z" fill="#E6E7E8"/>
<path d="M248.4 118.955V57.374H258.734V81.219H260.277C260.844 80.0828 261.634 79.067 262.6 78.2293C263.844 77.1337 265.297 76.291 266.875 75.75C269.031 75.0491 271.295 74.7222 273.566 74.7838C276.747 74.721 279.887 75.502 282.654 77.0443C285.272 78.5352 287.401 80.7304 288.788 83.3702C290.318 86.3386 291.072 89.6339 290.981 92.9592V118.955H280.647V93.7066C280.763 92.2877 280.59 90.8604 280.136 89.5081C279.683 88.1558 278.96 86.9058 278.008 85.8312C277.006 84.9365 275.833 84.2467 274.556 83.8022C273.28 83.3577 271.926 83.1674 270.573 83.2425C268.956 83.1643 267.342 83.4431 265.849 84.0583C264.357 84.6736 263.024 85.6096 261.949 86.7974C259.672 89.6992 258.548 93.3152 258.79 96.9698V118.955H248.4Z" fill="#E6E7E8"/>
<path d="M308.879 120.195C305.976 120.233 303.097 119.681 300.422 118.573C298.031 117.572 295.967 115.944 294.456 113.869C292.929 111.63 292.156 108.978 292.245 106.285C292.177 103.686 292.951 101.133 294.456 98.9934C295.955 96.904 298.032 95.2784 300.441 94.3083C303.25 93.2472 306.241 92.7273 309.251 92.7769H322.094V90.1883C322.138 89.1636 321.971 88.1408 321.6 87.1818C321.229 86.2228 320.664 85.3478 319.938 84.6098C319.022 83.8232 317.955 83.2256 316.799 82.8529C315.643 82.4802 314.422 82.3399 313.21 82.4405C310.761 82.2592 308.334 83.0027 306.426 84.5187C304.862 85.9277 303.806 87.7952 303.415 89.8419L293.88 86.761C294.603 84.4743 295.777 82.3495 297.337 80.5081C299.09 78.558 301.287 77.0404 303.749 76.0781C306.818 74.8139 310.123 74.193 313.451 74.2551C318.403 73.9742 323.286 75.4929 327.168 78.521C328.879 80.0949 330.213 82.0214 331.074 84.1618C331.936 86.3021 332.303 88.6031 332.149 90.8992V107.963C332.149 109.786 332.985 110.606 334.658 110.606H338.375V118.955H331.089C329.193 119.04 327.324 118.487 325.792 117.388C325.116 116.885 324.573 116.23 324.211 115.478C323.848 114.726 323.677 113.899 323.711 113.067V112.885H322.187C321.688 113.955 321.064 114.964 320.328 115.893C319.227 117.203 317.826 118.24 316.239 118.919C313.908 119.859 311.397 120.294 308.879 120.195ZM310.589 111.919C313.673 112.068 316.696 111.042 319.027 109.056C320.107 108.084 320.956 106.892 321.515 105.562C322.074 104.233 322.329 102.8 322.261 101.363V100.488H310.05C308.149 100.404 306.268 100.894 304.66 101.892C303.98 102.348 303.431 102.969 303.066 103.694C302.702 104.418 302.534 105.223 302.578 106.03C302.562 106.859 302.749 107.679 303.125 108.422C303.5 109.164 304.052 109.807 304.734 110.296C306.452 111.452 308.509 112.022 310.589 111.919Z" fill="#E6E7E8"/>
<path d="M343.56 69.9527C341.776 69.9752 340.052 69.3223 338.746 68.1297C337.459 66.8532 336.737 65.1304 336.737 63.3351C336.737 61.5399 337.459 59.817 338.746 58.5406C340.052 57.348 341.776 56.6951 343.56 56.7176C344.46 56.6897 345.357 56.8364 346.199 57.1493C347.041 57.4621 347.811 57.9349 348.467 58.5406C349.707 59.8409 350.396 61.5547 350.396 63.3351C350.396 65.1155 349.707 66.8294 348.467 68.1297C347.811 68.7354 347.041 69.2082 346.199 69.521C345.357 69.8339 344.46 69.9805 343.56 69.9527ZM338.43 118.955V75.4946H348.764V118.955H338.43Z" fill="#E6E7E8"/>
<path d="M353.355 118.955V75.4946H363.503V81.547H365.045C366.018 79.6825 367.449 78.0849 369.208 76.8983C371.998 75.2347 375.245 74.4638 378.501 74.6925C381.682 74.6322 384.818 75.4265 387.571 76.9895C390.199 78.5107 392.342 80.7202 393.76 83.37C395.282 86.3418 396.035 89.6347 395.954 92.9591V118.955H385.62V93.7065C385.732 92.2864 385.555 90.8586 385.099 89.5064C384.643 88.1542 383.916 86.9048 382.962 85.8311C381.963 84.9329 380.79 84.2409 379.513 83.7962C378.236 83.3515 376.881 83.1632 375.528 83.2424C373.908 83.164 372.291 83.4426 370.795 84.0578C369.3 84.673 367.964 85.6091 366.885 86.7973C364.582 89.6903 363.426 93.3046 363.633 96.9697V118.955H353.355Z" fill="#E6E7E8"/>
<path d="M415.673 118.955V57.374H421.416V113.887H454.499V118.974L415.673 118.955Z" fill="#E6E7E8"/>
<path d="M469.758 120.195C466.913 120.233 464.088 119.712 461.451 118.664C459.088 117.728 457.045 116.154 455.559 114.124C454.067 111.981 453.312 109.426 453.403 106.832C453.322 104.313 454.079 101.837 455.559 99.7772C457.063 97.857 459.094 96.3964 461.413 95.566C464.023 94.5893 466.798 94.1068 469.591 94.1441H485.575V90.6621C485.663 89.1926 485.442 87.7211 484.928 86.3384C484.413 84.9557 483.615 83.6911 482.583 82.6226C481.357 81.586 479.935 80.7965 478.397 80.2992C476.86 79.8018 475.238 79.6064 473.624 79.724C470.465 79.4757 467.323 80.3803 464.802 82.2644C462.281 84.1484 460.558 86.8793 459.964 89.9329L454.76 88.4198C455.44 85.9386 456.594 83.6065 458.161 81.547C459.798 79.4646 461.929 77.8061 464.369 76.716C467.288 75.4351 470.464 74.8122 473.661 74.893C478.331 74.5997 482.93 76.1187 486.467 79.1224C488.026 80.665 489.236 82.5128 490.018 84.5453C490.799 86.5777 491.135 88.749 491.002 90.9173V111.754C491.002 113.577 491.857 114.379 493.53 114.379H497.749V118.955H492.006C491.197 118.999 490.388 118.878 489.629 118.599C488.871 118.319 488.18 117.888 487.601 117.333C487.043 116.734 486.612 116.033 486.335 115.269C486.057 114.505 485.938 113.694 485.984 112.885V112.283H485.073C484.225 113.653 483.214 114.92 482.062 116.057C480.704 117.382 479.068 118.403 477.267 119.046C474.859 119.886 472.313 120.276 469.758 120.195ZM470.13 115.437C472.173 115.52 474.211 115.201 476.126 114.5C478.041 113.798 479.794 112.729 481.282 111.353C482.768 109.815 483.916 107.994 484.655 106.003C485.393 104.011 485.706 101.892 485.575 99.7772V98.7198H469.665C466.933 98.6172 464.23 99.3085 461.897 100.707C460.875 101.365 460.05 102.277 459.504 103.35C458.959 104.422 458.714 105.618 458.793 106.814C458.735 108.055 458.998 109.291 459.557 110.407C460.115 111.522 460.952 112.481 461.99 113.195C464.391 114.771 467.243 115.556 470.13 115.437Z" fill="#E6E7E8"/>
<path d="M520.999 120.195C517.081 120.412 513.188 119.445 509.848 117.424C507.399 115.821 505.378 113.664 503.956 111.135H502.878V118.955H497.656V57.374H503.027V83.6801H504.123C504.965 82.117 506.071 80.7054 507.395 79.5054C509.011 78.0619 510.907 76.9521 512.97 76.2422C515.581 75.3292 518.34 74.8966 521.111 74.9661C524.852 74.9147 528.541 75.8395 531.798 77.6459C534.995 79.4545 537.609 82.1075 539.344 85.3025C541.277 88.9257 542.237 92.9727 542.132 97.061V98.1001C542.234 102.192 541.261 106.242 539.306 109.859C537.541 113.049 534.91 115.699 531.705 117.515C528.446 119.333 524.748 120.258 520.999 120.195ZM519.754 115.437C521.988 115.526 524.216 115.157 526.296 114.353C528.376 113.549 530.263 112.329 531.835 110.77C533.438 109.043 534.674 107.021 535.472 104.82C536.27 102.62 536.613 100.286 536.481 97.9543V97.225C536.608 94.9036 536.264 92.5805 535.47 90.3901C534.675 88.1998 533.446 86.1856 531.854 84.464C528.578 81.456 524.26 79.7823 519.773 79.7823C515.286 79.7823 510.967 81.456 507.692 84.464C506.083 86.1772 504.84 88.1888 504.036 90.3803C503.231 92.5719 502.882 94.8991 503.008 97.225V97.9543C502.882 100.28 503.231 102.607 504.036 104.799C504.84 106.991 506.083 109.002 507.692 110.715C509.26 112.278 511.142 113.505 513.218 114.318C515.294 115.13 517.52 115.512 519.754 115.437Z" fill="#E6E7E8"/>
<path d="M562.688 120.195C557.906 120.344 553.19 119.073 549.158 116.549C545.44 114.088 543.117 110.004 542.281 104.316L547.596 103.35C547.9 105.99 548.906 108.505 550.514 110.642C551.907 112.391 553.776 113.718 555.904 114.471C558.078 115.245 560.375 115.634 562.688 115.619C565.735 115.765 568.757 115.016 571.368 113.468C572.392 112.841 573.233 111.964 573.806 110.922C574.38 109.88 574.667 108.709 574.639 107.525C574.731 106.429 574.484 105.331 573.93 104.375C573.376 103.419 572.542 102.649 571.535 102.165C568.924 100.995 566.159 100.191 563.32 99.7772L559.175 99.0844C556.616 98.6612 554.12 97.9326 551.741 96.915C549.679 96.065 547.869 94.7166 546.481 92.9955C545.174 91.2115 544.519 89.0467 544.623 86.852C544.563 85.1493 544.94 83.4592 545.719 81.9366C546.498 80.4141 547.655 79.1079 549.083 78.138C552.69 76.0392 556.812 74.9423 561.005 74.9648C565.199 74.9873 569.308 76.1283 572.892 78.2656C576 80.5904 578.05 84.0221 578.598 87.8182L573.468 88.8391C573.34 87.3937 572.893 85.9929 572.158 84.7337C571.423 83.4746 570.418 82.3873 569.212 81.547C566.676 80.0658 563.76 79.3316 560.811 79.4323C558.049 79.2966 555.305 79.9286 552.893 81.2553C551.945 81.8237 551.169 82.6306 550.647 83.5923C550.124 84.554 549.873 85.6354 549.92 86.7244C549.853 87.7402 550.069 88.7546 550.543 89.6598C551.018 90.565 551.734 91.3271 552.615 91.8653C554.914 93.1265 557.437 93.9492 560.049 94.2899L564.175 94.9826C566.943 95.3946 569.659 96.0912 572.278 97.0609C574.481 97.8418 576.444 99.1592 577.984 100.889C579.453 102.743 580.198 105.052 580.084 107.397C580.164 109.217 579.778 111.027 578.964 112.663C578.149 114.299 576.931 115.71 575.419 116.768C571.654 119.206 567.195 120.406 562.688 120.195Z" fill="#E6E7E8"/>
</svg>
